PathFileType	4	(X/Y/Z)	path1_13_0-574.trc
DataRate	CameraRate	NumFrames	NumMarkers	Units	OrigDataRate	OrigDataStartFrame	OrigNumFrames
30	30	9	22	m	30	143	574
Frame#	Time	Hip			RHip			RKnee			RAnkle			RBigToe			RSmallToe			RHeel			LHip			LKnee			LAnkle			LBigToe			LSmallToe			LHeel			Neck			Head			Nose			RShoulder			RElbow			RWrist			LShoulder			LElbow			LWrist		
		X1	Y1	Z1	X2	Y2	Z2	X3	Y3	Z3	X4	Y4	Z4	X5	Y5	Z5	X6	Y6	Z6	X7	Y7	Z7	X8	Y8	Z8	X9	Y9	Z9	X10	Y10	Z10	X11	Y11	Z11	X12	Y12	Z12	X13	Y13	Z13	X14	Y14	Z14	X15	Y15	Z15	X16	Y16	Z16	X17	Y17	Z17	X18	Y18	Z18	X19	Y19	Z19	X20	Y20	Z20	X21	Y21	Z21	X22	Y22	Z22
144	4.8	-2.513857578662404	0.8418074528759477	-0.5831875617133074	-2.5195956903790293	0.8039085335692693	-0.5037347558550408	-2.4993768697308942	0.4736470652449539	-0.48602466656053916	-2.5653613430218907	0.09816471357618663	-0.5160508064187825	-2.3615187944094775	0.018954772706726523	-0.48179606827166166	-2.4097108322245484	0.024567958243713134	-0.4201807788204833	-2.6104005958916336	0.03194863766702778	-0.5190822919036735	-2.5109552652963507	0.8016834220580351	-0.6674386079704915	-2.5232572383961975	0.4407687428084534	-0.6525278273347315	-2.557954226767192	0.09860415717901701	-0.6500822867268677	-2.387619536684268	0.019482285668516366	-0.6698909250860706	-2.422587979854365	0.02453160820811577	-0.7243153568218366	-2.601459710050692	0.03390106653741592	-0.6538558759060913	-2.4891490696307925	1.4739136749699813	-0.608615352537332	-2.4561076198872414	1.72040535619099	-0.562822792383695	-2.3553050866427774	1.605820978370356	-0.5866244163029449	-2.537969448839024	1.3741748157549836	-0.4350802939866293	-2.5444193118822542	1.080719538274203	-0.3860190346967406	-2.524684911856754	0.8526958180420606	-0.37754825950227305	-2.4880785416072686	1.3471914077680534	-0.7787339549907034	-2.540821073657919	1.0723071640817683	-0.7930909732460811	-2.5405362380695324	0.8383992887719101	-0.7863539060915209
145	4.833333333333333	-2.5135885856005036	0.841894483000982	-0.5828447703889582	-2.519105666842875	0.8032605657205072	-0.5032714125879766	-2.4994955001457826	0.47343183173411624	-0.4857549133660083	-2.5656158707082612	0.09801378023424293	-0.5171279439064137	-2.3613419096627193	0.01778734650326724	-0.4822249241968466	-2.4091529351292356	0.024772454013986003	-0.42046629455243095	-2.6077519116488554	0.03322878857307635	-0.5162963040054167	-2.510891829085376	0.8007578508122211	-0.6664720654821469	-2.5234104749306674	0.4402423791803199	-0.651549568298631	-2.5589921086291825	0.0970738844610441	-0.6496922844077831	-2.3874260622233194	0.019936532755245526	-0.6699978948890808	-2.4224181503313766	0.024815603749248235	-0.7242294714050749	-2.6002426631858957	0.03460008269639801	-0.6533350078684669	-2.4890957203100057	1.4741847617596484	-0.6080771084821082	-2.456889943283935	1.7195693977158935	-0.5625761841399575	-2.355594917397665	1.6061003727721659	-0.5870319639397686	-2.5382407690294526	1.3747752283201624	-0.4357476964250804	-2.5439937989465697	1.0812417825250016	-0.3851258333548149	-2.524589353314935	0.8527684699544917	-0.3775361490509422	-2.4877500875867256	1.3474627644187158	-0.7782231542775843	-2.540630270830671	1.0725041796888595	-0.7930372454133103	-2.5403136852203465	0.8385496548402498	-0.7862598301604171
146	4.866666666666666	-2.5134624457937047	0.8418578919232931	-0.5825068500215016	-2.518586431210451	0.8026267421386407	-0.5027586586989065	-2.499531368731483	0.47316331144545315	-0.48557655910444836	-2.564346655597559	0.09885656595851511	-0.5160624614293008	-2.360911716421847	0.01722184426775841	-0.4824312533350647	-2.4085058237069554	0.02495850979608188	-0.42065840440237356	-2.604669205273269	0.034560070061707616	-0.5131572004065519	-2.5109483187005712	0.7998731608177866	-0.6655137771757926	-2.5236381714876885	0.4397020620015867	-0.6504160263083845	-2.55992909097027	0.09538944363939642	-0.6493229396990325	-2.3873261902195733	0.02017139604634068	-0.6701290451620572	-2.4223410515876975	0.0247971165846819	-0.7239803274029729	-2.5985727452026723	0.035319606056899655	-0.652677364099586	-2.4891006374230655	1.4743850158306717	-0.6077442898226048	-2.457592317606926	1.7187132884598089	-0.562522791749103	-2.3559255901566702	1.6063365452004685	-0.5879213942739112	-2.538378099512877	1.375285711838842	-0.43630668065237543	-2.5428960301672974	1.0820010198581975	-0.38300885002524027	-2.52446760442905	0.8528644516626878	-0.37761913567127114	-2.4876348708317146	1.3477024603492542	-0.7776796513876989	-2.54057754262991	1.072699007000141	-0.7929758652943328	-2.540173334280078	0.8386559077359069	-0.7861948290687877
147	4.9	-2.5135688214566367	0.8417550460053954	-0.5822592459514083	-2.518202441763041	0.8021486373204622	-0.5023440861117677	-2.499471158407686	0.4729247254963384	-0.48556972342321403	-2.5614282415516216	0.10083693407738674	-0.5124452677879496	-2.3602710118804806	0.01724490306528955	-0.4824207266285376	-2.407823583353811	0.02507191432087508	-0.42071979627733797	-2.6016256590773086	0.03572072106968343	-0.5101123842102125	-2.5110815836856344	0.7992248878118046	-0.6648028324124668	-2.5238375930271433	0.4392277372742007	-0.6494450150623798	-2.560538358676522	0.09394475063858014	-0.6490290016383673	-2.3873117309846306	0.020160426458597176	-0.6701789780279916	-2.422319188654252	0.02457536037926105	-0.7236428921570003	-2.5970108657472486	0.03579383282462333	-0.652099373618862	-2.4891679002511555	1.4745152576762601	-0.6076887153589006	-2.45819959321569	1.7180185505281196	-0.5627198054500154	-2.356299601402648	1.6065555404521128	-0.5891211129960399	-2.5383016847367155	1.3754689828474609	-0.4364293526125113	-2.54178472250275	1.082688083859108	-0.38083989629076104	-2.5243249754032453	0.8529478822293984	-0.37778116917889815	-2.4877703012602885	1.347870967258957	-0.7772082660874028	-2.5407317425264857	1.0728547395294241	-0.7929251885405726	-2.5401916785945504	0.838567849000405	-0.7861356462482557
148	4.933333333333334	-2.5138946417802446	0.8416302071410218	-0.5821203357163383	-2.518062986875676	0.8018917340222844	-0.502144278783065	-2.499349460383046	0.4728118818693928	-0.48571662900286283	-2.557221846314308	0.1037872070283004	-0.5066473404904999	-2.3596284989771728	0.017738697730886124	-0.48220777509475815	-2.407178782054713	0.025112327521722468	-0.4206783283052674	-2.5991355317295337	0.036521519965659235	-0.5075994948639888	-2.511231971814523	0.7988653343254019	-0.6644409679212557	-2.523947552208927	0.43887207663074695	-0.648840992374874	-2.5607012222568297	0.0930601232787128	-0.6488588464892173	-2.387398701146069	0.01994445276287898	-0.6701119930945194	-2.422295045584719	0.024305519933788433	-0.723289785590626	-2.5958367532718523	0.03600229298345148	-0.6516820923770283	-2.4892614616069957	1.4745888158999976	-0.6078626966479673	-2.4587340016124175	1.7175701348823709	-0.5632078127196195	-2.3566883856484817	1.6067629078119317	-0.5903436994918162	-2.5379292195469927	1.3750502470189345	-0.4357477191249991	-2.5410627516034974	1.0830925915310248	-0.379400858426974	-2.52419431714667	0.8529952744073487	-0.37795984716334535	-2.488050095750177	1.3479525658762272	-0.7768815905786063	-2.5410587705291707	1.0729146840972286	-0.7928931973898398	-2.540409819793144	0.8382007235091095	-0.7860791271252051
149	4.966666666666667	-2.5143375086529476	0.8414832040726794	-0.5820611511152607	-2.518195387144209	0.8018126872388116	-0.5022013832020675	-2.4992512075487094	0.4728599070489116	-0.48593742657377376	-2.552630439503819	0.10709787592714026	-0.49994413983842917	-2.3592579676561023	0.018618257515238823	-0.4818145060632992	-2.406658642406514	0.025099829976591104	-0.42056455882973476	-2.5976073824383206	0.03684736761107629	-0.5059849357484297	-2.5113773718769608	0.7987144571818882	-0.6643910698267212	-2.523967601378253	0.43861433082405676	-0.6486707807814813	-2.5602978248476775	0.09293188254840366	-0.6488811506497473	-2.387584722378438	0.019649286829627514	-0.6700052320436977	-2.422249336292391	0.02409871146828996	-0.7229886610024782	-2.59498626751581	0.0360868871886494	-0.6514613236755484	-2.4893425396376845	1.474610511326983	-0.608186626345581	-2.4592195946112665	1.7173423778401575	-0.5639332548546682	-2.3570571807505374	1.6069448848818553	-0.5913424676322974	-2.537212999910252	1.3737755872723076	-0.4339429434415132	-2.5408881490683304	1.0831525882297803	-0.37901199984556483	-2.5241015401136924	0.8530081613711772	-0.37810329690965294	-2.4883312209892643	1.3479605122858587	-0.7767214114757277	-2.5414801069601487	1.072827448138245	-0.7929089261692893	-2.5408109763677755	0.8375832516737252	-0.7860509231028644
150	5.0	-2.514773270536143	0.841279759817103	-0.5820607944074397	-2.51855499125881	0.801817362931526	-0.5024774845387034	-2.499250686192544	0.4730039761113159	-0.4861583807698515	-2.548724582188022	0.10993862155167244	-0.493969420100726	-2.3593381964607745	0.019835055489229102	-0.48129649212609144	-2.4063387925339774	0.025037719062814948	-0.42037016334194294	-2.597155179361634	0.0367192363074078	-0.505404069654587	-2.5115370107043846	0.7986564059407731	-0.6645614019785905	-2.5239324547415363	0.43838540946653526	-0.648920364198257	-2.5591921043951413	0.09370131003916492	-0.6491645529721017	-2.38781793148204	0.019423630198832035	-0.669962661460907	-2.4221943656579135	0.024002558461476732	-0.7227953824536911	-2.59432397088326	0.036177723832227685	-0.6514388306957396	-2.4893963375014914	1.4745749285358807	-0.6086253420044145	-2.45965412017369	1.7172523040122416	-0.5647460284318703	-2.357363722731831	1.6070919861406803	-0.5919516139694969	-2.536164663505772	1.3715453102342687	-0.4308954090516092	-2.541335203523672	1.082897017446489	-0.379774530644269	-2.524052692872036	0.8529883369501357	-0.3782161409312078	-2.4885438974117564	1.347915463496027	-0.7767165879644952	-2.541935425526298	1.0725720853202145	-0.7930043579591416	-2.5413127266726776	0.836827673163618	-0.7860628495506595
151	5.033333333333333	-2.5151029895535464	0.8410179507258588	-0.5821103457033365	-2.5190460276657185	0.8018526208856895	-0.502852144271909	-2.499358417763878	0.4731276155175755	-0.4863225174014818	-2.546109726786049	0.1118033776740698	-0.4897552480894948	-2.3598298253696157	0.021252490321861	-0.48077629323583404	-2.406228025939878	0.024931049640049635	-0.4200838421237443	-2.5976522425307986	0.036240948890963465	-0.5057511660226159	-2.5116935760083536	0.7986193780519858	-0.6648273871970606	-2.5238597259602047	0.43812575314660906	-0.6494748822016803	-2.557300068906785	0.09546436617890514	-0.6497417819166819	-2.388017057154505	0.019371770388468917	-0.6700345499125587	-2.422146205720399	0.024018023104725953	-0.7227438715119852	-2.5937954572261708	0.03631346495343596	-0.6515639360850415	-2.489407198822567	1.4744878896237499	-0.6091171511674389	-2.4599986403355425	1.7172114419064746	-0.5654438948556169	-2.3575713930654234	1.6071967724224945	-0.5920980176074971	-2.53491162505947	1.3686432628874505	-0.4269601687553121	-2.542403908772473	1.082407628986507	-0.3816091554205878	-2.5240445518087644	0.852951646477267	-0.378322570551414	-2.4886414708766953	1.3478325907143562	-0.7768177395388107	-2.5423802374886635	1.0721969727116125	-0.7931579527405295	-2.541815665985114	0.8360773959415561	-0.7860882984770499
152	5.066666666666666	-2.5152757047796803	0.8407619270752266	-0.582195705897712	-2.5195455465399674	0.8019185946213921	-0.5031571654688201	-2.4995293609279345	0.47315804229995484	-0.48640127867403116	-2.544738870807203	0.11274494595387642	-0.4873773356152094	-2.3605136051108464	0.022617187519212205	-0.4804047949465116	-2.4062721664826126	0.024804900746060492	-0.4197376507885708	-2.598804322373373	0.035573836640945884	-0.506723712569754	-2.511776982268704	0.7985810491632296	-0.6650490984913441	-2.5237303094540766	0.4378320854568848	-0.6501471425539946	-2.554697088981433	0.09811870360921629	-0.6505972238836352	-2.388117129055908	0.01950848420424804	-0.6701927089189593	-2.42210337411977	0.024102050602486436	-0.722834741672066	-2.5933048133316405	0.03649527738150503	-0.6517652543224758	-2.489340750736533	1.4743892667144889	-0.6095284316161511	-2.4601879914064635	1.7171392167420345	-0.5658252143743533	-2.3576761704333693	1.607231945030383	-0.5918377118642117	-2.5337142966025095	1.3657561511829037	-0.4229938861798174	-2.543940391575519	1.0818353478580847	-0.38414979750521205	-2.5240689203615245	0.852955963988089	-0.37840914048201024	-2.488570399830151	1.3477366407801024	-0.7769468412941885	-2.542773196226842	1.0718121199609303	-0.7933010943089054	-2.542244187110038	0.8354550807332626	-0.7860957286336148
